<svg xmlns="http://www.w3.org/2000/svg" width="379" height="358" viewBox="0 0 379 358" fill="none"><metadata><rdf:RDF xmlns:rdf="http://www.w3.org/1999/02/22-rdf-syntax-ns#" xmlns:dc="http://purl.org/dc/elements/1.1/"><rdf:Description><dc:creator>RealFaviconGenerator</dc:creator><dc:source>https://realfavicongenerator.net</dc:source></rdf:Description></rdf:RDF></metadata><path d="M124.5 72.537L192.665 90.7334" stroke="#9D6642" stroke-width="14" stroke-linecap="round"></path><path d="M192.665 90.7334L259.312 70.7431" stroke="#9D6642" stroke-width="14" stroke-linecap="round"></path><path d="M85.5001 106.037L192.888 144.883" stroke="#9D6642" stroke-width="14" stroke-linecap="round"></path><path d="M192.888 144.883L296 104.037" stroke="#9D6642" stroke-width="14" stroke-linecap="round"></path><path d="M39.9346 139.329L192.665 194.868" stroke="#9D6642" stroke-width="14"></path><path d="M192.665 194.868L337.065 139.329" stroke="#9D6642" stroke-width="14" stroke-linecap="round"></path><path d="M12.0001 168.537L192.665 242.076" stroke="#9D6642" stroke-width="14" stroke-linecap="round"></path><path d="M192.665 242.076L367.611 167.099" stroke="#9D6642" stroke-width="14" stroke-linecap="round"></path><path d="M7.99994 250.406L192.665 344.266" stroke="#9D6642" stroke-width="14" stroke-linecap="round"></path><path d="M192.665 344.822L369 255.96" stroke="#9D6642" stroke-width="14" stroke-linecap="round"></path><path d="M9.99994 207.037L193 291.537" stroke="#9D6642" stroke-width="14" stroke-linecap="round"></path><path d="M194.5 290.037L367.611 211.529" stroke="#9D6642" stroke-width="14" stroke-linecap="round"></path><path d="M121.465 76.7431L193.665 96.7334" stroke="#4E220F" stroke-width="7" stroke-linecap="round"></path><path d="M121.465 76.7431L193.665 96.7334" stroke="#4E220F" stroke-width="10" stroke-linecap="round"></path><path d="M193.665 96.7334L260.312 76.7431" stroke="#4E220F" stroke-width="7" stroke-linecap="round"></path><path d="M193.665 96.7334L260.312 76.7431" stroke="#4E220F" stroke-width="10" stroke-linecap="round"></path><path d="M79.8117 109.229L193.888 150.883" stroke="#4E220F" stroke-width="7" stroke-linecap="round"></path><path d="M79.8117 109.229L193.888 150.883" stroke="#4E220F" stroke-width="10" stroke-linecap="round"></path><path d="M193.888 150.883L299.188 109.229" stroke="#4E220F" stroke-width="7" stroke-linecap="round"></path><path d="M193.888 150.883L299.188 109.229" stroke="#4E220F" stroke-width="10" stroke-linecap="round"></path><path d="M40.9346 145.329L193.665 200.868" stroke="#4E220F" stroke-width="7"></path><path d="M40.9346 145.329L193.665 200.868" stroke="#4E220F" stroke-width="10"></path><path d="M193.665 200.868L338.065 145.329" stroke="#4E220F" stroke-width="7" stroke-linecap="round"></path><path d="M193.665 200.868L338.065 145.329" stroke="#4E220F" stroke-width="10" stroke-linecap="round"></path><path d="M10.3885 173.099L193.665 248.076" stroke="#4E220F" stroke-width="7" stroke-linecap="round"></path><path d="M10.3885 173.099L193.665 248.076" stroke="#4E220F" stroke-width="10" stroke-linecap="round"></path><path d="M193.665 248.076L368.611 173.099" stroke="#4E220F" stroke-width="7" stroke-linecap="round"></path><path d="M193.665 248.076L368.611 173.099" stroke="#4E220F" stroke-width="10" stroke-linecap="round"></path><path d="M8.99994 256.406L193.5 350.537" stroke="#4E220F" stroke-width="10" stroke-linecap="round"></path><path d="M193.665 350.822L370 261.96" stroke="#4E220F" stroke-width="7" stroke-linecap="round"></path><path d="M193.665 350.822L370 261.96" stroke="#4E220F" stroke-width="10" stroke-linecap="round"></path><path d="M10.9999 213.037L194 297.537" stroke="#4E220F" stroke-width="10" stroke-linecap="round"></path><path d="M193.665 295.283L368.611 217.529" stroke="#4E220F" stroke-width="7" stroke-linecap="round"></path><path d="M195.5 296.037L368.611 217.529" stroke="#4E220F" stroke-width="10" stroke-linecap="round"></path><path d="M369.999 171.71L193.665 12.037L10.3885 171.71M193.665 348.433V12.037" stroke="#4E220F" stroke-width="18" stroke-linecap="round"></path><path d="M370 171.71V261.96" stroke="#4E220F" stroke-width="18" stroke-linecap="round"></path><path d="M10.3885 173.099L9.00003 256.406" stroke="#4E220F" stroke-width="18" stroke-linecap="round"></path></svg>