<svg xmlns="http://www.w3.org/2000/svg" width="512" height="512" viewBox="0 0 512 512" fill="none"><metadata><rdf:RDF xmlns:rdf="http://www.w3.org/1999/02/22-rdf-syntax-ns#" xmlns:dc="http://purl.org/dc/elements/1.1/"><rdf:Description><dc:creator>RealFaviconGenerator</dc:creator><dc:source>https://realfavicongenerator.net</dc:source></rdf:Description></rdf:RDF></metadata><path d="M0 82C0 36.7127 36.7127 0 82 0H430C475.287 0 512 36.7127 512 82V430C512 475.287 475.287 512 430 512H82C36.7127 512 0 475.287 0 430V82Z" fill="#F7F1DE"></path><path d="M184.5 133.5L252.665 151.696" stroke="#9D6642" stroke-width="14" stroke-linecap="round"></path><path d="M252.665 151.696L319.311 131.706" stroke="#9D6642" stroke-width="14" stroke-linecap="round"></path><path d="M145.5 167L252.888 205.846" stroke="#9D6642" stroke-width="14" stroke-linecap="round"></path><path d="M252.887 205.846L356 165" stroke="#9D6642" stroke-width="14" stroke-linecap="round"></path><path d="M99.9346 200.292L252.665 255.831" stroke="#9D6642" stroke-width="14"></path><path d="M252.665 255.831L397.065 200.292" stroke="#9D6642" stroke-width="14" stroke-linecap="round"></path><path d="M72 229.5L252.665 303.039" stroke="#9D6642" stroke-width="14" stroke-linecap="round"></path><path d="M252.665 303.039L427.611 228.062" stroke="#9D6642" stroke-width="14" stroke-linecap="round"></path><path d="M67.9999 311.369L252.665 405.229" stroke="#9D6642" stroke-width="14" stroke-linecap="round"></path><path d="M252.665 405.785L429 316.923" stroke="#9D6642" stroke-width="14" stroke-linecap="round"></path><path d="M69.9999 268L253 352.5" stroke="#9D6642" stroke-width="14" stroke-linecap="round"></path><path d="M254.5 351L427.611 272.492" stroke="#9D6642" stroke-width="14" stroke-linecap="round"></path><path d="M181.465 137.706L253.665 157.696" stroke="#4E220F" stroke-width="7" stroke-linecap="round"></path><path d="M181.465 137.706L253.665 157.696" stroke="#4E220F" stroke-width="10" stroke-linecap="round"></path><path d="M253.665 157.696L320.311 137.706" stroke="#4E220F" stroke-width="7" stroke-linecap="round"></path><path d="M253.665 157.696L320.311 137.706" stroke="#4E220F" stroke-width="10" stroke-linecap="round"></path><path d="M139.812 170.192L253.888 211.846" stroke="#4E220F" stroke-width="7" stroke-linecap="round"></path><path d="M139.812 170.192L253.888 211.846" stroke="#4E220F" stroke-width="10" stroke-linecap="round"></path><path d="M253.887 211.846L359.188 170.192" stroke="#4E220F" stroke-width="7" stroke-linecap="round"></path><path d="M253.887 211.846L359.188 170.192" stroke="#4E220F" stroke-width="10" stroke-linecap="round"></path><path d="M100.935 206.292L253.665 261.831" stroke="#4E220F" stroke-width="7"></path><path d="M100.935 206.292L253.665 261.831" stroke="#4E220F" stroke-width="10"></path><path d="M253.665 261.831L398.065 206.292" stroke="#4E220F" stroke-width="7" stroke-linecap="round"></path><path d="M253.665 261.831L398.065 206.292" stroke="#4E220F" stroke-width="10" stroke-linecap="round"></path><path d="M70.3884 234.062L253.665 309.039" stroke="#4E220F" stroke-width="7" stroke-linecap="round"></path><path d="M70.3884 234.062L253.665 309.039" stroke="#4E220F" stroke-width="10" stroke-linecap="round"></path><path d="M253.665 309.039L428.611 234.062" stroke="#4E220F" stroke-width="7" stroke-linecap="round"></path><path d="M253.665 309.039L428.611 234.062" stroke="#4E220F" stroke-width="10" stroke-linecap="round"></path><path d="M68.9999 317.369L253.5 411.5" stroke="#4E220F" stroke-width="10" stroke-linecap="round"></path><path d="M253.665 411.785L430 322.923" stroke="#4E220F" stroke-width="7" stroke-linecap="round"></path><path d="M253.665 411.785L430 322.923" stroke="#4E220F" stroke-width="10" stroke-linecap="round"></path><path d="M70.9999 274L254 358.5" stroke="#4E220F" stroke-width="10" stroke-linecap="round"></path><path d="M253.665 356.246L428.611 278.492" stroke="#4E220F" stroke-width="7" stroke-linecap="round"></path><path d="M255.5 357L428.611 278.492" stroke="#4E220F" stroke-width="10" stroke-linecap="round"></path><path d="M429.999 232.673L253.665 73L70.3884 232.673M253.665 409.396V73" stroke="#4E220F" stroke-width="18" stroke-linecap="round"></path><path d="M430 232.673V322.923" stroke="#4E220F" stroke-width="18" stroke-linecap="round"></path><path d="M70.3884 234.062L69 317.369" stroke="#4E220F" stroke-width="18" stroke-linecap="round"></path></svg>